<?xml version="1.0" encoding="UTF-8" standalone="no"?>
<!-- Created with Inkscape (http://www.inkscape.org/) -->

<svg
   version="1.1"
   id="svg1"
   width="156"
   height="101.61333"
   viewBox="0 0 156 101.61333"
   sodipodi:docname="SchoolMedicine_logo_1c_pms_v.eps"
   xmlns:inkscape="http://www.inkscape.org/namespaces/inkscape"
   xmlns:sodipodi="http://sodipodi.sourceforge.net/DTD/sodipodi-0.dtd"
   xmlns="http://www.w3.org/2000/svg"
   xmlns:svg="http://www.w3.org/2000/svg">
  <defs
     id="defs1" />
  <sodipodi:namedview
     id="namedview1"
     pagecolor="#ffffff"
     bordercolor="#000000"
     borderopacity="0.25"
     inkscape:showpageshadow="2"
     inkscape:pageopacity="0.0"
     inkscape:pagecheckerboard="0"
     inkscape:deskcolor="#d1d1d1">
    <inkscape:page
       x="0"
       y="0"
       inkscape:label="1"
       id="page1"
       width="156"
       height="101.61333"
       margin="0"
       bleed="0" />
  </sodipodi:namedview>
  <g
     id="g1"
     inkscape:groupmode="layer"
     inkscape:label="1">
    <g
       id="group-R5">
      <path
         id="path2"
         d="m 274.672,180.496 c -11.621,0 -21.367,2.5 -30.117,6.5 l 3.125,18.246 c 8.867,-4.75 18.742,-7.996 27.363,-7.996 6.125,0 10.371,2.621 10.371,7.75 0,4.871 -2.488,7.117 -14.617,11.742 -17.246,6.625 -24.746,12.25 -24.746,26.492 0,16.625 12.996,25.497 29.5,25.497 11.242,0 18.484,-2.125 25.984,-5.747 l -3.238,-17.996 c -7.754,4.496 -15.879,6.996 -22.5,6.996 -6.496,0 -9.621,-2.746 -9.621,-6.746 0,-4.375 2.375,-6.5 13.117,-10.625 18.875,-6.871 26.25,-13.371 26.25,-27.121 0,-18.742 -13.75,-26.992 -30.871,-26.992"
         style="fill:#6c9acb;fill-opacity:1;fill-rule:nonzero;stroke:none"
         transform="matrix(0.13333333,0,0,-0.13333333,0,101.61333)" />
      <path
         id="path3"
         d="m 358.449,180 c -25.738,0 -41.363,17.246 -41.363,44.488 0,26.742 16.375,44.742 42.359,44.742 9.133,0 16.504,-2.003 22.746,-5.625 l -2.996,-19.246 c -5.121,4 -11.125,6.996 -18.617,6.996 -13.492,0 -22.117,-10.246 -22.117,-26.742 0,-16.746 9.121,-26.742 22.617,-26.742 6.992,0 13.242,2.621 19.617,6.621 l 2.746,-17.871 c -6.867,-4 -14.863,-6.621 -24.992,-6.621"
         style="fill:#6c9acb;fill-opacity:1;fill-rule:nonzero;stroke:none"
         transform="matrix(0.13333333,0,0,-0.13333333,0,101.61333)" />
      <path
         id="path4"
         d="m 450.219,181.5 v 34.988 H 420.348 V 181.5 H 398.98 v 86.23 h 21.368 v -32.617 h 29.871 v 32.617 h 21.496 V 181.5 h -21.496"
         style="fill:#6c9acb;fill-opacity:1;fill-rule:nonzero;stroke:none"
         transform="matrix(0.13333333,0,0,-0.13333333,0,101.61333)" />
      <path
         id="path5"
         d="m 528.91,252.605 c -12.363,0 -19.734,-10.871 -19.734,-27.992 0,-17.125 7.371,-27.992 19.734,-27.992 12.5,0 19.746,10.867 19.746,27.992 0,17.121 -7.246,27.992 -19.746,27.992 z m -0.117,-72.734 c -24.746,0 -40.996,18 -40.996,44.617 0,26.742 16.25,44.864 41.238,44.864 25,0 41.117,-17.997 41.117,-44.618 0,-26.613 -16.242,-44.863 -41.359,-44.863"
         style="fill:#6c9acb;fill-opacity:1;fill-rule:nonzero;stroke:none"
         transform="matrix(0.13333333,0,0,-0.13333333,0,101.61333)" />
      <path
         id="path6"
         d="m 623.91,252.605 c -12.363,0 -19.734,-10.871 -19.734,-27.992 0,-17.125 7.371,-27.992 19.734,-27.992 12.5,0 19.746,10.867 19.746,27.992 0,17.121 -7.246,27.992 -19.746,27.992 z m -0.117,-72.734 c -24.746,0 -40.996,18 -40.996,44.617 0,26.742 16.25,44.864 41.238,44.864 25,0 41.117,-17.997 41.117,-44.618 0,-26.613 -16.242,-44.863 -41.359,-44.863"
         style="fill:#6c9acb;fill-opacity:1;fill-rule:nonzero;stroke:none"
         transform="matrix(0.13333333,0,0,-0.13333333,0,101.61333)" />
      <path
         id="path7"
         d="m 681.305,181.5 v 86.23 h 21.367 v -67.734 h 26.492 l 2.883,-18.496 h -50.742"
         style="fill:#6c9acb;fill-opacity:1;fill-rule:nonzero;stroke:none"
         transform="matrix(0.13333333,0,0,-0.13333333,0,101.61333)" />
      <path
         id="path8"
         d="m 812.66,252.605 c -12.363,0 -19.734,-10.871 -19.734,-27.992 0,-17.125 7.371,-27.992 19.734,-27.992 12.5,0 19.746,10.867 19.746,27.992 0,17.121 -7.246,27.992 -19.746,27.992 z m -0.117,-72.734 c -24.746,0 -40.996,18 -40.996,44.617 0,26.742 16.25,44.864 41.238,44.864 25,0 41.117,-17.997 41.117,-44.618 0,-26.613 -16.242,-44.863 -41.359,-44.863"
         style="fill:#6c9acb;fill-opacity:1;fill-rule:nonzero;stroke:none"
         transform="matrix(0.13333333,0,0,-0.13333333,0,101.61333)" />
      <path
         id="path9"
         d="m 891.313,249.859 v -17.625 h 22.492 l 2.996,-17.871 H 891.313 V 181.5 h -21.25 v 86.23 h 51.613 v -17.871 h -30.363"
         style="fill:#6c9acb;fill-opacity:1;fill-rule:nonzero;stroke:none"
         transform="matrix(0.13333333,0,0,-0.13333333,0,101.61333)" />
      <path
         id="path10"
         d="M 365.629,1.5 V 58.4844 L 346.762,1.12109 h -18.75 L 309.273,58.4844 V 1.5 h -18.125 v 86.2305 h 28.622 l 19.238,-58.8633 19.121,58.8633 H 386 V 1.5 h -20.371"
         style="fill:#6c9acb;fill-opacity:1;fill-rule:nonzero;stroke:none"
         transform="matrix(0.13333333,0,0,-0.13333333,0,101.61333)" />
      <path
         id="path11"
         d="M 406.027,1.5 V 87.7305 H 459.77 V 70.4844 H 427.027 V 54.2383 h 24.989 l 2.754,-17.125 H 427.027 V 18.8711 h 33.868 V 1.5 h -54.868"
         style="fill:#6c9acb;fill-opacity:1;fill-rule:nonzero;stroke:none"
         transform="matrix(0.13333333,0,0,-0.13333333,0,101.61333)" />
      <path
         id="path12"
         d="m 506.703,71.1094 h -7.754 V 18.1211 h 7.754 c 15.242,0 24.746,7.9961 24.746,26.4922 0,18.1211 -10.129,26.4961 -24.746,26.4961 z M 507.824,1.5 h -30.242 v 86.2305 h 29.746 c 29.992,0 45.617,-17.375 45.617,-42.9961 0,-25.6133 -16,-43.2344 -45.121,-43.2344"
         style="fill:#6c9acb;fill-opacity:1;fill-rule:nonzero;stroke:none"
         transform="matrix(0.13333333,0,0,-0.13333333,0,101.61333)" />
      <path
         id="path13"
         d="m 569.328,1.5 v 86.2305 h 21.379 V 1.5 h -21.379"
         style="fill:#6c9acb;fill-opacity:1;fill-rule:nonzero;stroke:none"
         transform="matrix(0.13333333,0,0,-0.13333333,0,101.61333)" />
      <path
         id="path14"
         d="m 648.441,0 c -25.742,0 -41.367,17.2461 -41.367,44.4883 0,26.7422 16.375,44.7422 42.364,44.7422 9.128,0 16.503,-2.0039 22.746,-5.625 l -3,-19.2461 c -5.118,4 -11.121,6.9961 -18.614,6.9961 -13.496,0 -22.121,-10.2461 -22.121,-26.7422 0,-16.7461 9.121,-26.7422 22.617,-26.7422 6.997,0 13.247,2.6211 19.622,6.6211 L 673.434,6.62109 C 666.566,2.62109 658.566,0 648.441,0"
         style="fill:#6c9acb;fill-opacity:1;fill-rule:nonzero;stroke:none"
         transform="matrix(0.13333333,0,0,-0.13333333,0,101.61333)" />
      <path
         id="path15"
         d="m 689.145,1.5 v 86.2305 h 21.378 V 1.5 h -21.378"
         style="fill:#6c9acb;fill-opacity:1;fill-rule:nonzero;stroke:none"
         transform="matrix(0.13333333,0,0,-0.13333333,0,101.61333)" />
      <path
         id="path16"
         d="M 784.406,1.5 750.414,53.1094 V 1.5 h -19.871 v 86.2305 h 20.738 l 31.75,-48.2383 v 48.2383 h 19.871 V 1.5 h -18.496"
         style="fill:#6c9acb;fill-opacity:1;fill-rule:nonzero;stroke:none"
         transform="matrix(0.13333333,0,0,-0.13333333,0,101.61333)" />
      <path
         id="path17"
         d="m 822.863,1.5 v 86.2305 h 53.742 V 70.4844 H 843.859 V 54.2383 h 24.993 l 2.753,-17.125 H 843.859 V 18.8711 H 877.73 V 1.5 h -54.867"
         style="fill:#6c9acb;fill-opacity:1;fill-rule:nonzero;stroke:none"
         transform="matrix(0.13333333,0,0,-0.13333333,0,101.61333)" />
      <path
         id="path18"
         d="m 1170,374.32 v -4.004 H 0 v 4.004 h 1170"
         style="fill:#6c9acb;fill-opacity:1;fill-rule:nonzero;stroke:none"
         transform="matrix(0.13333333,0,0,-0.13333333,0,101.61333)" />
      <path
         id="path19"
         d="m 119.168,697.906 c 0.539,-0.531 0.863,-0.449 0.863,-0.449 39.528,1.527 62.168,-13.508 64.094,-19.644 l 15.797,0.277 4.91,10.699 c 0.301,0.875 0.145,2.168 -0.148,2.524 -4.762,5.273 -44.551,16.644 -92.551,16.644 -51.215,0 -83.6955,-10.117 -90.5471,-15.184 0,0 -1.6211,-0.98 -1.6836,-2.484 -0.0234,-0.695 0.9766,-2.633 0.9766,-2.633 l 1.3906,-3.004 c 0.4297,-0.898 1.0391,-0.824 2.086,-0.218 0,0 0.9258,0.293 1.1211,0.906 0.1836,0.598 -0.4024,1.668 -0.4024,1.668 -1.0312,2.078 0.3321,2.347 0.4141,2.394 l 2.9297,1.325 c 1.3906,0.402 1.5586,-0.34 2.0351,-1.446 0,0 0.5274,-1.531 0.9141,-1.765 0.7383,-0.45 3.0742,0.871 10.0469,2.578 0.4765,0.086 0.7343,0.14 1.6679,0.508 0.6641,0.261 0.0703,2.621 0.0703,2.621 -0.2539,1.148 -0.7851,2.34 1.7579,2.738 l 4.3476,0.875 c 2.0352,0.539 2.2227,-0.523 2.4844,-1.699 0,0 0.1328,-1.75 0.582,-2.485 0.5664,-0.929 1.6211,0.532 14.9297,1.961 0,0 1.9414,0.055 2.3242,0.723 0.4024,0.703 0.0703,2.262 0.0703,2.262 -0.1328,1.617 -0.7851,2.8 2.2852,2.992 l 5.8281,0.543 c 4.3633,0.699 3.6406,-0.766 3.7891,-2.367 0,0 0.1445,-1.746 0.4765,-2.059 0.3204,-0.32 1.7032,-0.281 1.7032,-0.281 7.457,0.773 11.6484,0.726 19.5585,1.066 0,0 1.117,0.008 1.524,0.465 0.41,0.457 0.292,0.965 0.292,0.965 0,0.883 -0.191,2.312 0.387,2.918 0.664,0.68 1.684,0.398 2.727,0.398 h 6.668 c 1.031,0 3.109,0.461 3.722,-0.281 0.371,-0.461 0.246,-3.305 0.246,-3.305 0,0 0,-0.457 0.313,-0.746 v 0"
         style="fill:#6c9acb;fill-opacity:1;fill-rule:nonzero;stroke:none"
         transform="matrix(0.13333333,0,0,-0.13333333,0,101.61333)" />
      <path
         id="path20"
         d="m 112.445,762.113 c -38.6364,0 -62.4177,-12.406 -77.6364,-27.34 0,0 -0.2617,-0.257 -0.3945,-0.652 -0.2891,-0.758 -0.3672,-1.898 1.1992,-1.351 33.1015,13.89 69.2777,5.195 80.8007,-7.891 0.406,-0.625 0.02,-0.766 -0.453,-0.766 -11.637,-0.144 -21.3946,0.551 -42.9141,-2.457 -11.625,-1.644 -21.9883,-3.332 -30.7188,-5.605 -14.375,-3.735 -24.5937,-8.442 -30.2929,-12.223 -2.0977,-1.129 -2.26176,-1.93 -2.77348,-2.887 -0.62109,-1.882 -0.54688,-1.859 -0.94141,-3.136 -0.70703,-2.422 -1.08593,-3.969 -1.21484,-4.766 -0.23438,-1.461 1.35156,-0.973 2.17578,-0.117 1.75005,1.746 6.48825,5.937 13.46095,9.183 7.1094,3.309 18.8594,7.071 31.6211,9.426 17.0195,3.125 37.7109,5.141 56.6407,5.184 21.949,0.074 41.637,-2.219 58.082,-5.422 16.734,-3.27 29.957,-7.793 38.508,-11.969 4.015,-1.949 6.273,-3.754 8.965,-6.023 2.121,-2.172 2.25,-0.317 2.211,0.25 0,0 -0.383,2.902 -3.946,9.465 -10.933,20.089 -40.109,59.097 -102.379,59.097"
         style="fill:#6c9acb;fill-opacity:1;fill-rule:nonzero;stroke:none"
         transform="matrix(0.13333333,0,0,-0.13333333,0,101.61333)" />
      <path
         id="path21"
         d="m 0.164063,503.652 c 0,-8.968 37.296837,-27.375 114.495937,-27.375 74.914,0 114.465,18.407 114.465,27.375 l -0.383,13.758 c 0,-0.265 -0.054,0.918 -0.164,0.602 -0.129,2.484 -4.082,2.961 -16.191,3.14 l -0.278,7.637 c 0,-0.781 -2.554,-2.445 -4.14,-3.363 -9.867,-5.684 -47.559,-14.16 -94.707,-14.16 -54.5862,0 -92.8128,11.312 -98.844,17.523 l -0.125,-11.785 c 17.9765,-12.84 73.3203,-24.348 129.211,-18.395 1.66,0.039 2.223,0.383 3.91,-0.097 0.457,-0.153 2,-1.5 -1.043,-2.61 C 113.965,485.199 33.9414,487.594 0.0390625,513.316 l 0.1601565,-9.664"
         style="fill:#6c9acb;fill-opacity:1;fill-rule:nonzero;stroke:none"
         transform="matrix(0.13333333,0,0,-0.13333333,0,101.61333)" />
      <path
         id="path22"
         d="m 159.859,681.453 h 0.676 c -0.105,0.031 -0.222,0.043 -0.34,0.043 -0.125,0 -0.246,-0.012 -0.336,-0.043 v 0"
         style="fill:#6c9acb;fill-opacity:1;fill-rule:nonzero;stroke:none"
         transform="matrix(0.13333333,0,0,-0.13333333,0,101.61333)" />
      <path
         id="path23"
         d="m 159.027,678.57 c 0,-0.047 0.02,-0.105 0.02,-0.132 v 2.414 0 0 c 0,-0.036 -0.02,-0.086 -0.02,-0.129 v -2.153 0"
         style="fill:#6c9acb;fill-opacity:1;fill-rule:nonzero;stroke:none"
         transform="matrix(0.13333333,0,0,-0.13333333,0,101.61333)" />
      <path
         id="path24"
         d="m 159.047,678.438 v 0 2.414 z"
         style="fill:#6c9acb;fill-opacity:1;fill-rule:nonzero;stroke:none"
         transform="matrix(0.13333333,0,0,-0.13333333,0,101.61333)" />
      <path
         id="path25"
         d="m 138.582,682.332 c 0.02,0 0.035,0.043 0.094,0.043 h -0.192 c 0.032,0 0.067,-0.043 0.098,-0.043 v 0"
         style="fill:#6c9acb;fill-opacity:1;fill-rule:nonzero;stroke:none"
         transform="matrix(0.13333333,0,0,-0.13333333,0,101.61333)" />
      <path
         id="path26"
         d="m 159.047,678.438 v 0 0 0 0 0"
         style="fill:#6c9acb;fill-opacity:1;fill-rule:nonzero;stroke:none"
         transform="matrix(0.13333333,0,0,-0.13333333,0,101.61333)" />
      <path
         id="path27"
         d="m 160.379,686.988 -21.102,0.02 c -1.031,0 -1.48,-0.524 -1.507,-1.528 v -2.39 c -0.012,-1.102 0.476,-1.594 1.605,-1.606 h 6.523 c 0.598,0.039 0.762,-0.25 0.79,-0.336 0.242,-0.656 -0.961,-1.183 -1.352,-1.46 l -3.231,-2.118 c -0.437,-0.261 -0.863,-0.863 -0.863,-2.011 l -0.14,-151.243 c 0.312,-2.656 4.546,-2.914 9.136,-2.886 3.875,0.011 8.465,0.215 8.946,2.812 0,0 -0.125,143.942 0.004,156.383 0.031,0.57 0.273,0.688 0.371,0.738 0.14,0.09 0.804,0.16 0.804,0.16 0.957,0.036 1.481,0.512 1.481,1.461 v 2.555 c -0.031,0.93 -0.633,1.414 -1.465,1.449 v 0"
         style="fill:#6c9acb;fill-opacity:1;fill-rule:nonzero;stroke:none"
         transform="matrix(0.13333333,0,0,-0.13333333,0,101.61333)" />
      <path
         id="path28"
         d="m 125.711,581.781 0.488,1.008 h 1.434 l -0.024,0.938 H 98.3086 v -0.938 h 1.5625 l 0.4219,-0.934 1.758,-3.671 c 0,0 0.312,-0.332 0.719,-0.504 0.347,-0.16 1.125,-0.223 1.414,-0.223 7.699,-0.078 6.019,0 7.226,0 0.563,-0.016 1.352,-0.016 1.738,-0.477 0.25,-0.335 0.473,-1.234 -0.605,-1.929 -2.516,-1.688 -6.707,-4.43 -8.66,-5.715 -0.246,-0.133 -0.91,-0.57 -1.113,-1.117 -0.27,-0.59 -0.207,-1.051 -0.207,-1.051 v -28.422 l -2.485,-0.969 c 0,0 -0.7616,-5.672 0.102,-6.254 0.82,-0.578 24.707,-0.578 25.543,-0.039 0.804,0.543 0.097,6.391 0.097,6.391 l -2.515,0.871 v 38.164 l 2.406,4.871 v 0"
         style="fill:#6c9acb;fill-opacity:1;fill-rule:nonzero;stroke:none"
         transform="matrix(0.13333333,0,0,-0.13333333,0,101.61333)" />
      <path
         id="path29"
         d="m 201.309,678.73 -21.11,0.032 c -1.031,0.031 -1.484,-0.508 -1.519,-1.551 v -2.348 c 0,-1.113 0.48,-1.593 1.593,-1.621 h 6.551 c 0.59,0.039 0.754,-0.234 0.778,-0.332 0.253,-0.66 -0.95,-1.211 -1.368,-1.469 l -3.207,-2.121 c -0.461,-0.254 -0.875,-0.84 -0.867,-2.015 l -0.121,-136.36 c 0.293,-2.632 4.52,-2.875 9.125,-2.863 3.899,0 8.449,0.231 8.938,2.797 0,0 -0.137,129.059 0.015,141.488 0,0.578 0.27,0.723 0.352,0.77 0.148,0.086 0.804,0.144 0.804,0.144 0.965,0.032 1.497,0.524 1.497,1.465 v 2.563 c -0.051,0.925 -0.637,1.402 -1.461,1.421 v 0"
         style="fill:#6c9acb;fill-opacity:1;fill-rule:nonzero;stroke:none"
         transform="matrix(0.13333333,0,0,-0.13333333,0,101.61333)" />
      <path
         id="path30"
         d="m 85.9531,686.988 -21.1015,0.02 c -1.0274,0 -1.5118,-0.539 -1.5118,-1.555 v -2.363 c 0,-1.102 0.4649,-1.606 1.5821,-1.606 h 6.5469 c 0.6015,0.039 0.7617,-0.257 0.7851,-0.336 0.2539,-0.656 -0.9492,-1.207 -1.3594,-1.46 l -3.2109,-2.118 c -0.4492,-0.261 -0.8867,-0.879 -0.8672,-2.023 L 66.6836,524.281 c 0.3047,-2.636 4.5273,-2.879 9.1328,-2.851 3.8711,0 8.4492,0.215 8.9336,2.793 0,0 -0.1055,143.961 0.0313,156.379 0,0.582 0.246,0.711 0.3359,0.761 0.1562,0.09 0.8203,0.16 0.8203,0.16 0.9453,0.016 1.4727,0.512 1.4727,1.461 v 2.539 c -0.043,0.946 -0.6446,1.43 -1.4571,1.465 v 0"
         style="fill:#6c9acb;fill-opacity:1;fill-rule:nonzero;stroke:none"
         transform="matrix(0.13333333,0,0,-0.13333333,0,101.61333)" />
      <path
         id="path31"
         d="m 44.8789,678.352 -21.1133,0.027 c -1.0234,0 -1.4961,-0.531 -1.5039,-1.559 v -2.359 c 0,-1.106 0.461,-1.586 1.586,-1.586 l 6.5586,-0.012 c 0.5859,0.032 0.7343,-0.246 0.7695,-0.34 0.2539,-0.652 -0.9453,-1.214 -1.3672,-1.488 l -3.1914,-2.086 c -0.4766,-0.265 -0.8984,-0.883 -0.8711,-2.035 L 25.6094,530.57 c 0.289,-2.648 4.5312,-2.918 9.125,-2.906 3.8945,0 8.4531,0.258 8.9375,2.824 0,0 -0.1094,129.067 0.0273,141.496 0,0.567 0.2696,0.711 0.3477,0.754 0.1484,0.125 0.7929,0.157 0.7929,0.157 0.9649,0.015 1.504,0.5 1.504,1.46 v 2.54 c -0.0547,0.929 -0.6446,1.433 -1.4649,1.457 v 0"
         style="fill:#6c9acb;fill-opacity:1;fill-rule:nonzero;stroke:none"
         transform="matrix(0.13333333,0,0,-0.13333333,0,101.61333)" />
      <path
         id="path32"
         d="m 1150.36,679.203 c -14.07,39.774 -50.83,65.856 -97.45,65.856 -71.359,0 -115.824,-51.723 -115.824,-123.516 0,-77.363 55.59,-134.219 120.524,-134.219 33.78,0 75.27,11.543 104.3,63.242 h 8.13 c -5.57,-19.199 -17.1,-45.746 -27.36,-62.375 -27.37,3.817 -46.14,-11.597 -96.59,-11.597 -86.805,0 -149.172,57.293 -149.172,136.371 0,82.941 64.102,142.758 153.442,142.758 53.86,0 76.9,-17.106 90.19,-17.106 4.7,0 6.81,1.297 7.69,2.574 h 6.37 l 3.89,-61.988 h -8.14"
         style="fill:#6c9acb;fill-opacity:1;fill-rule:nonzero;stroke:none"
         transform="matrix(0.13333333,0,0,-0.13333333,0,101.61333)" />
      <path
         id="path33"
         d="m 795.242,749.309 v -8.118 c 34.137,-0.855 41.844,-5.566 41.844,-31.613 V 539.48 L 635.781,749.309 H 621.93 604.598 536.641 520.563 475.082 v -8.118 c 35.481,-1.714 41.895,-8.984 41.895,-49.98 v -99.594 c 0,-72.652 -49.164,-92.75 -97.426,-92.75 -63.703,0 -97.457,34.625 -97.457,92.34 v 118.77 c 0,24.82 10.277,31.214 33.754,31.214 h 3.879 v 8.118 H 249.863 v -8.118 c 29.067,-0.433 36.762,-4.722 36.762,-32.05 V 584.316 c 0,-61.089 41.863,-107.722 123.512,-107.722 92.754,0 126.504,56.898 126.504,109.898 v 115.367 c 0,31.676 15.195,39.207 35.011,39.207 11.883,0 23.368,-3.691 32.946,-10.414 v -210.41 c 0,-19.644 -8.555,-28.633 -35.063,-28.633 h -1.699 v -8.129 h 99.199 v 8.129 c -36.34,0 -43.191,6.387 -43.191,37.168 v 183.36 l 221.347,-231.68 h 11.153 v 238.52 c 0,16.648 6.828,22.214 38.918,22.214 v 8.118 h -100.02"
         style="fill:#6c9acb;fill-opacity:1;fill-rule:nonzero;stroke:none"
         transform="matrix(0.13333333,0,0,-0.13333333,0,101.61333)" />
    </g>
  </g>
</svg>
